<?xml version="1.0" standalone="no"?>
<!DOCTYPE svg PUBLIC "-//W3C//DTD SVG 20010904//EN"
 "http://www.w3.org/TR/2001/REC-SVG-20010904/DTD/svg10.dtd">
<svg version="1.0" xmlns="http://www.w3.org/2000/svg"
 width="700.000000pt" height="700.000000pt" viewBox="0 0 700.000000 700.000000"
 preserveAspectRatio="xMidYMid meet">
<metadata>
Created by potrace 1.11, written by Peter Selinger 2001-2013
</metadata>
<g transform="translate(0.000000,700.000000) scale(0.100000,-0.100000)"
fill="#000000" stroke="none">
<path d="M3402 6964 c-97 -25 -168 -73 -228 -155 -64 -88 -74 -141 -79 -414
-5 -282 -13 -389 -39 -520 -39 -197 -144 -314 -303 -340 -21 -3 -51 -8 -68
-10 -16 -3 -87 -7 -156 -9 -179 -6 -241 -26 -331 -105 -58 -52 -103 -129 -121
-207 -19 -84 -17 -3356 2 -3424 36 -127 143 -238 268 -277 27 -8 102 -16 173
-18 192 -6 257 -18 340 -60 97 -50 155 -142 189 -301 27 -124 31 -168 37 -429
8 -368 26 -448 129 -550 84 -84 188 -125 306 -119 199 9 356 158 377 357 9 93
8 6184 -2 6259 -4 32 -12 60 -17 63 -5 4 -9 14 -9 24 0 28 -76 127 -126 166
-93 70 -229 98 -342 69z"/>
<path d="M4480 5512 c-159 -21 -295 -140 -336 -294 -20 -78 -21 -3370 0 -3438
21 -70 55 -127 102 -175 215 -214 579 -126 670 163 9 28 17 103 19 187 6 203
17 279 49 350 62 137 180 182 483 186 156 1 209 10 280 46 132 67 207 188 220
352 7 99 24 135 76 160 65 31 145 40 380 46 250 5 273 8 345 42 211 101 292
360 177 566 -52 92 -165 172 -270 192 -22 4 -125 8 -230 10 -330 6 -425 27
-459 100 -7 16 -16 64 -19 106 -10 126 -49 214 -129 290 -83 79 -171 105 -363
108 -247 3 -359 30 -434 101 -75 73 -99 169 -105 440 -6 198 -41 284 -153 376
-80 65 -202 100 -303 86z"/>
<path d="M1307 4485 c-161 -55 -259 -184 -272 -362 -9 -106 -20 -138 -58 -162
-67 -40 -140 -50 -418 -56 -278 -6 -331 -19 -430 -112 -172 -161 -171 -430 3
-590 98 -90 146 -102 430 -108 127 -3 245 -8 262 -11 174 -30 199 -54 210
-202 14 -180 111 -312 272 -367 212 -72 449 48 513 260 18 61 19 102 19 722 0
535 -3 668 -15 713 -57 221 -296 349 -516 275z"/>
</g>
</svg>
