<svg version="1" xmlns="http://www.w3.org/2000/svg" width="933.333" height="933.333" viewBox="0 0 700.000000 700.000000"><path d="M325.5 1.1C167.2 12.1 36.9 127.2 6.6 283c-4.5 23-6 39.5-6 67 0 48 7.4 87.3 24.6 130.5C83.8 627.6 236 717.1 393.7 697c121.1-15.5 224.4-91.2 274.4-201.2 49.6-109.1 40.2-236.7-24.8-336.7C574 52.6 452.7-7.7 325.5 1.1zm82.7 157.3c11.4 2.1 34.5 8.7 44.2 12.6 11.8 4.7 16.2 7.1 33.9 19 18.3 12.1 24.3 18 29.1 28 7.1 14.9 2.5 34-13.9 58.4-10.6 15.8-22.6 27.8-33.2 33.2-14 7.1-30.6 3.1-54.7-13-10.8-7.2-15.5-9.1-27-10.7-17.4-2.4-34.2 2.2-50.2 13.6-7.9 5.7-13.2 11.8-17.8 20.4-4.8 9.2-6.6 17.3-6.6 30.6 0 20.2 4.7 32.4 16.9 44.5 11.3 11.2 25.3 17.9 40.6 19.6 13.3 1.4 31.6-3.3 45-11.6 20.2-12.4 25.2-14.5 35-14.5 5.7 0 8.2.6 13.5 3.1 8.5 4 19.7 13.1 28.9 23.2 31.7 34.9 34.8 56.8 11.3 81.4-9.2 9.6-29.2 23.3-45.7 31.3-23 11.1-48.4 16.5-78.5 16.5-42.6 0-80.5-12.8-120.1-40.6-41.6-29.2-68.1-73.2-75.5-125.1-2.2-15.5-2.2-43.9.1-58.8 7.3-49.2 33-92.6 71.9-121.3 31.2-23 62.9-36.4 97.6-41.2 10-1.4 45-.5 55.2 1.4z"/></svg>