<svg width="167.03mm" height="167.03mm" version="1.1" viewBox="0 0 167.03 167.03" xmlns="http://www.w3.org/2000/svg">
  <defs>
    <linearGradient id="linearGradient1817" x1="24.811" x2="191.84" y1="230.84" y2="63.805" gradientUnits="userSpaceOnUse">
      <stop stop-color="#004188" offset="0"/>
      <stop stop-color="#33a8d8" offset="1"/>
    </linearGradient>
  </defs>
  <g transform="translate(-24.811 -63.805)">
    <g>
      <path d="m57.363 63.805h101.93c18.034 0 32.552 14.518 32.552 32.552v101.93c0 18.034-14.518 32.552-32.552 32.552h-101.93c-18.034 0-32.552-14.518-32.552-32.552v-101.93c0-18.034 14.518-32.552 32.552-32.552z" fill="url(#linearGradient1817)"/>
      <g fill="#fff" aria-label="C">
        <path d="m111.64 189.16q-12.535 0-21.996-5.2033-9.3422-5.2033-14.545-14.9-5.085-9.697-5.085-22.705 0-12.89 5.085-22.587 5.2033-9.697 14.545-14.9 9.4605-5.2033 21.996-5.2033 15.019 0 26.371 7.9232 2.0104 1.4191 2.8382 3.0747 0.94605 1.6556 0.94605 4.2572 0 3.6659-2.1286 6.2676-2.0104 2.4834-4.9668 2.4834-1.7738 0-3.1929-0.47302-1.4191-0.59128-3.3112-1.7738-4.139-2.4834-7.8049-3.5477-3.6659-1.0643-7.5684-1.0643-10.525 0-15.728 6.3858-5.085 6.2676-5.085 19.157 0 13.008 5.085 19.394 5.2033 6.2676 15.728 6.2676 3.5477 0 6.8588-1.0643 3.3112-1.1826 8.5144-3.5477 2.4834-1.3008 3.6659-1.7738 1.1826-0.47303 2.8381-0.47303 2.9564 0 4.9668 2.6016 2.1286 2.4834 2.1286 6.1493 0 2.4834-0.94605 4.2572-0.8278 1.6556-2.8382 3.0746-11.353 7.9232-26.371 7.9232z" fill="#fff" stroke-width=".61592"/>
      </g>
    </g>
  </g>
</svg>
